<svg xmlns="http://www.w3.org/2000/svg" xmlns:xlink="http://www.w3.org/1999/xlink" width="40" zoomAndPan="magnify" viewBox="0 0 30 30.000001" height="40" preserveAspectRatio="xMidYMid meet" version="1.0"><defs><clipPath id="cf69067c5f"><path d="M 2.625 2.902344 L 27.300781 2.902344 L 27.300781 27.582031 L 2.625 27.582031 Z M 2.625 2.902344 " clip-rule="nonzero"/></clipPath></defs><path fill="#ffd21e" d="M 16.652344 14.953125 C 16.355469 14.863281 16.058594 14.863281 15.757812 14.945312 C 15.460938 15.027344 15.207031 15.1875 14.996094 15.414062 C 14.789062 15.1875 14.535156 15.027344 14.238281 14.945312 C 13.9375 14.863281 13.640625 14.863281 13.34375 14.953125 C 11.6875 15.609375 11.859375 17.730469 14.476562 19.316406 C 14.824219 19.53125 15.171875 19.53125 15.519531 19.316406 C 18.136719 17.730469 18.308594 15.609375 16.652344 14.953125 Z M 15.230469 18.847656 C 15.074219 18.945312 14.921875 18.945312 14.765625 18.847656 C 12.886719 17.6875 12.789062 16.679688 12.839844 16.300781 C 12.867188 16.058594 12.96875 15.851562 13.152344 15.6875 C 13.332031 15.523438 13.546875 15.441406 13.792969 15.4375 C 14.144531 15.449219 14.433594 15.59375 14.660156 15.863281 C 14.753906 15.957031 14.867188 16.003906 14.996094 16.003906 C 15.128906 16.003906 15.242188 15.957031 15.335938 15.863281 C 15.46875 15.691406 15.644531 15.570312 15.851562 15.5 C 16.0625 15.429688 16.273438 15.421875 16.484375 15.480469 C 17.667969 15.972656 17.363281 17.550781 15.230469 18.847656 Z M 15.230469 18.847656 " fill-opacity="1" fill-rule="nonzero"/><path fill="#ffd21e" d="M 12.691406 12.828125 L 12.691406 10.394531 C 12.839844 7.308594 17.199219 7.355469 17.300781 10.46875 L 17.300781 11.332031 L 13.246094 11.332031 L 13.246094 12.828125 C 13.246094 12.902344 13.21875 12.96875 13.164062 13.019531 C 13.109375 13.074219 13.046875 13.101562 12.96875 13.101562 C 12.894531 13.101562 12.828125 13.074219 12.777344 13.019531 C 12.722656 12.96875 12.695312 12.902344 12.691406 12.828125 Z M 12.691406 12.828125 " fill-opacity="1" fill-rule="nonzero"/><g clip-path="url(#cf69067c5f)"><path fill="#ffd21e" d="M 14.996094 2.902344 C 14.183594 2.902344 13.378906 2.984375 12.582031 3.140625 C 11.789062 3.300781 11.011719 3.535156 10.261719 3.84375 C 9.511719 4.15625 8.800781 4.535156 8.125 4.988281 C 7.449219 5.441406 6.824219 5.953125 6.25 6.527344 C 5.675781 7.101562 5.160156 7.726562 4.710938 8.402344 C 4.257812 9.078125 3.878906 9.789062 3.566406 10.542969 C 3.257812 11.292969 3.019531 12.066406 2.863281 12.863281 C 2.703125 13.660156 2.625 14.464844 2.625 15.277344 C 2.625 16.089844 2.703125 16.894531 2.863281 17.691406 C 3.019531 18.488281 3.257812 19.261719 3.566406 20.011719 C 3.878906 20.761719 4.257812 21.472656 4.710938 22.148438 C 5.160156 22.824219 5.675781 23.449219 6.25 24.023438 C 6.824219 24.597656 7.449219 25.113281 8.125 25.5625 C 8.800781 26.015625 9.511719 26.394531 10.261719 26.707031 C 11.011719 27.019531 11.789062 27.253906 12.582031 27.410156 C 13.378906 27.570312 14.183594 27.648438 14.996094 27.648438 C 15.808594 27.648438 16.613281 27.570312 17.410156 27.410156 C 18.207031 27.253906 18.980469 27.019531 19.734375 26.707031 C 20.484375 26.394531 21.195312 26.015625 21.871094 25.5625 C 22.546875 25.113281 23.171875 24.597656 23.746094 24.023438 C 24.320312 23.449219 24.832031 22.824219 25.285156 22.148438 C 25.738281 21.472656 26.117188 20.761719 26.429688 20.011719 C 26.738281 19.261719 26.972656 18.488281 27.132812 17.691406 C 27.292969 16.894531 27.371094 16.089844 27.371094 15.277344 C 27.371094 14.464844 27.292969 13.660156 27.132812 12.863281 C 26.972656 12.066406 26.738281 11.292969 26.429688 10.542969 C 26.117188 9.789062 25.734375 9.078125 25.285156 8.402344 C 24.832031 7.726562 24.320312 7.101562 23.746094 6.527344 C 23.171875 5.953125 22.546875 5.441406 21.871094 4.988281 C 21.195312 4.539062 20.484375 4.15625 19.730469 3.84375 C 18.980469 3.535156 18.207031 3.300781 17.410156 3.140625 C 16.613281 2.984375 15.808594 2.902344 14.996094 2.902344 Z M 18.671875 23.019531 L 11.324219 23.019531 C 9.964844 23.015625 9.136719 21.640625 9.308594 20.316406 L 10.105469 13.171875 C 10.136719 12.921875 10.207031 12.6875 10.320312 12.464844 C 10.4375 12.238281 10.585938 12.042969 10.769531 11.875 C 10.957031 11.707031 11.167969 11.574219 11.398438 11.480469 C 11.632812 11.386719 11.875 11.339844 12.125 11.332031 L 12.140625 11.332031 L 12.140625 10.394531 C 12.300781 6.601562 17.699219 6.609375 17.855469 10.394531 L 17.855469 11.332031 C 18.042969 11.332031 18.226562 11.355469 18.40625 11.410156 C 18.808594 11.53125 19.144531 11.75 19.414062 12.070312 C 19.679688 12.390625 19.839844 12.757812 19.890625 13.171875 L 20.683594 20.316406 C 20.859375 21.640625 20.03125 23.015625 18.671875 23.019531 Z M 18.671875 23.019531 " fill-opacity="1" fill-rule="nonzero"/></g></svg>