<svg xmlns="http://www.w3.org/2000/svg" xmlns:xlink="http://www.w3.org/1999/xlink" width="140" zoomAndPan="magnify" viewBox="0 0 104.88 32.249999" height="43" preserveAspectRatio="xMidYMid meet" version="1.0"><defs><g/><clipPath id="ec8aa4262e"><path d="M 18.675781 9.871094 L 28.9375 9.871094 L 28.9375 20.132812 L 18.675781 20.132812 Z M 18.675781 9.871094 " clip-rule="nonzero"/></clipPath></defs><path fill="#ffd21e" d="M 24.570312 14.933594 C 24.296875 14.851562 24.066406 14.917969 23.875 15.128906 C 23.683594 14.917969 23.453125 14.851562 23.179688 14.933594 C 22.484375 15.210938 22.554688 16.101562 23.65625 16.769531 C 23.800781 16.859375 23.949219 16.859375 24.09375 16.769531 C 25.195312 16.101562 25.265625 15.210938 24.570312 14.933594 Z M 23.972656 16.570312 C 23.90625 16.613281 23.84375 16.613281 23.777344 16.570312 C 22.988281 16.082031 22.945312 15.660156 22.96875 15.5 C 22.980469 15.398438 23.023438 15.3125 23.097656 15.242188 C 23.175781 15.175781 23.265625 15.140625 23.367188 15.136719 C 23.515625 15.144531 23.636719 15.203125 23.734375 15.316406 C 23.828125 15.410156 23.921875 15.410156 24.015625 15.316406 C 24.140625 15.15625 24.304688 15.101562 24.5 15.15625 C 24.996094 15.363281 24.867188 16.023438 23.972656 16.570312 Z M 23.972656 16.570312 " fill-opacity="1" fill-rule="nonzero"/><path fill="#ffd21e" d="M 22.90625 14.042969 L 22.90625 13.019531 C 22.96875 11.722656 24.800781 11.742188 24.84375 13.050781 L 24.84375 13.414062 L 23.136719 13.414062 L 23.136719 14.042969 C 23.136719 14.117188 23.097656 14.15625 23.023438 14.15625 C 22.945312 14.15625 22.90625 14.117188 22.90625 14.042969 Z M 22.90625 14.042969 " fill-opacity="1" fill-rule="nonzero"/><g clip-path="url(#ec8aa4262e)"><path fill="#ffd21e" d="M 23.875 9.871094 C 23.535156 9.871094 23.195312 9.902344 22.859375 9.96875 C 22.527344 10.035156 22.199219 10.136719 21.886719 10.265625 C 21.570312 10.398438 21.269531 10.558594 20.984375 10.746094 C 20.703125 10.9375 20.441406 11.152344 20.199219 11.394531 C 19.957031 11.632812 19.742188 11.898438 19.550781 12.179688 C 19.363281 12.464844 19.203125 12.765625 19.070312 13.082031 C 18.941406 13.394531 18.839844 13.71875 18.773438 14.054688 C 18.707031 14.390625 18.675781 14.726562 18.675781 15.070312 C 18.675781 15.410156 18.707031 15.75 18.773438 16.085938 C 18.839844 16.417969 18.941406 16.746094 19.070312 17.058594 C 19.203125 17.375 19.363281 17.675781 19.550781 17.957031 C 19.742188 18.242188 19.957031 18.503906 20.199219 18.746094 C 20.441406 18.988281 20.703125 19.203125 20.984375 19.394531 C 21.269531 19.582031 21.570312 19.742188 21.886719 19.875 C 22.199219 20.003906 22.527344 20.101562 22.859375 20.167969 C 23.195312 20.234375 23.535156 20.269531 23.875 20.269531 C 24.214844 20.269531 24.554688 20.234375 24.890625 20.167969 C 25.222656 20.101562 25.550781 20.003906 25.863281 19.875 C 26.179688 19.742188 26.480469 19.582031 26.761719 19.394531 C 27.046875 19.203125 27.308594 18.988281 27.550781 18.746094 C 27.792969 18.503906 28.007812 18.242188 28.199219 17.957031 C 28.386719 17.675781 28.546875 17.375 28.679688 17.058594 C 28.808594 16.746094 28.90625 16.417969 28.972656 16.085938 C 29.039062 15.75 29.074219 15.410156 29.074219 15.070312 C 29.074219 14.726562 29.039062 14.390625 28.972656 14.054688 C 28.90625 13.722656 28.808594 13.394531 28.679688 13.082031 C 28.546875 12.765625 28.386719 12.464844 28.199219 12.179688 C 28.007812 11.898438 27.792969 11.636719 27.550781 11.394531 C 27.308594 11.152344 27.046875 10.9375 26.761719 10.746094 C 26.480469 10.558594 26.179688 10.398438 25.863281 10.265625 C 25.550781 10.136719 25.222656 10.035156 24.890625 9.96875 C 24.554688 9.902344 24.214844 9.871094 23.875 9.871094 Z M 25.417969 18.324219 L 22.332031 18.324219 C 21.757812 18.324219 21.410156 17.746094 21.484375 17.1875 L 21.820312 14.1875 C 21.84375 13.96875 21.9375 13.789062 22.097656 13.640625 C 22.257812 13.492188 22.449219 13.417969 22.667969 13.414062 L 22.675781 13.414062 L 22.675781 13.019531 C 22.742188 11.425781 25.011719 11.429688 25.074219 13.019531 L 25.074219 13.414062 C 25.15625 13.410156 25.230469 13.421875 25.308594 13.445312 C 25.675781 13.554688 25.886719 13.800781 25.929688 14.1875 L 26.265625 17.1875 C 26.335938 17.746094 25.988281 18.324219 25.417969 18.324219 Z M 25.417969 18.324219 " fill-opacity="1" fill-rule="nonzero"/></g><g fill="#000000" fill-opacity="1"><g transform="translate(30.98887, 18.323862)"><g><path d="M 4.546875 -5.78125 C 4.503906 -5.707031 4.460938 -5.65625 4.421875 -5.625 C 4.378906 -5.59375 4.328125 -5.578125 4.265625 -5.578125 C 4.191406 -5.578125 4.113281 -5.601562 4.03125 -5.65625 C 3.957031 -5.707031 3.863281 -5.765625 3.75 -5.828125 C 3.632812 -5.890625 3.503906 -5.941406 3.359375 -5.984375 C 3.210938 -6.035156 3.039062 -6.0625 2.84375 -6.0625 C 2.65625 -6.0625 2.492188 -6.039062 2.359375 -6 C 2.222656 -5.957031 2.109375 -5.894531 2.015625 -5.8125 C 1.921875 -5.738281 1.847656 -5.644531 1.796875 -5.53125 C 1.753906 -5.425781 1.734375 -5.3125 1.734375 -5.1875 C 1.734375 -5.019531 1.78125 -4.878906 1.875 -4.765625 C 1.96875 -4.648438 2.085938 -4.550781 2.234375 -4.46875 C 2.390625 -4.394531 2.566406 -4.328125 2.765625 -4.265625 C 2.960938 -4.210938 3.160156 -4.148438 3.359375 -4.078125 C 3.566406 -4.003906 3.769531 -3.921875 3.96875 -3.828125 C 4.164062 -3.734375 4.335938 -3.613281 4.484375 -3.46875 C 4.640625 -3.332031 4.765625 -3.160156 4.859375 -2.953125 C 4.953125 -2.753906 5 -2.507812 5 -2.21875 C 5 -1.894531 4.941406 -1.59375 4.828125 -1.3125 C 4.722656 -1.039062 4.566406 -0.800781 4.359375 -0.59375 C 4.148438 -0.382812 3.894531 -0.21875 3.59375 -0.09375 C 3.289062 0.0195312 2.941406 0.078125 2.546875 0.078125 C 2.328125 0.078125 2.109375 0.0546875 1.890625 0.015625 C 1.671875 -0.0234375 1.457031 -0.0859375 1.25 -0.171875 C 1.050781 -0.253906 0.863281 -0.351562 0.6875 -0.46875 C 0.519531 -0.582031 0.363281 -0.707031 0.21875 -0.84375 L 0.609375 -1.484375 C 0.640625 -1.523438 0.679688 -1.5625 0.734375 -1.59375 C 0.785156 -1.625 0.84375 -1.640625 0.90625 -1.640625 C 0.988281 -1.640625 1.078125 -1.601562 1.171875 -1.53125 C 1.265625 -1.46875 1.375 -1.394531 1.5 -1.3125 C 1.632812 -1.238281 1.785156 -1.164062 1.953125 -1.09375 C 2.128906 -1.03125 2.34375 -1 2.59375 -1 C 2.96875 -1 3.253906 -1.085938 3.453125 -1.265625 C 3.660156 -1.441406 3.765625 -1.695312 3.765625 -2.03125 C 3.765625 -2.21875 3.71875 -2.367188 3.625 -2.484375 C 3.53125 -2.597656 3.40625 -2.691406 3.25 -2.765625 C 3.101562 -2.847656 2.929688 -2.914062 2.734375 -2.96875 C 2.535156 -3.03125 2.335938 -3.09375 2.140625 -3.15625 C 1.941406 -3.21875 1.742188 -3.296875 1.546875 -3.390625 C 1.347656 -3.484375 1.171875 -3.601562 1.015625 -3.75 C 0.867188 -3.894531 0.75 -4.078125 0.65625 -4.296875 C 0.5625 -4.515625 0.515625 -4.785156 0.515625 -5.109375 C 0.515625 -5.367188 0.566406 -5.617188 0.671875 -5.859375 C 0.773438 -6.109375 0.921875 -6.328125 1.109375 -6.515625 C 1.304688 -6.703125 1.546875 -6.851562 1.828125 -6.96875 C 2.117188 -7.082031 2.453125 -7.140625 2.828125 -7.140625 C 3.242188 -7.140625 3.625 -7.070312 3.96875 -6.9375 C 4.320312 -6.8125 4.625 -6.628906 4.875 -6.390625 Z M 4.546875 -5.78125 "/></g></g></g><g fill="#000000" fill-opacity="1"><g transform="translate(36.347101, 18.323862)"><g><path d="M 4.90625 -5.015625 L 4.90625 0 L 4.171875 0 C 4.015625 0 3.914062 -0.0703125 3.875 -0.21875 L 3.796875 -0.625 C 3.585938 -0.414062 3.359375 -0.242188 3.109375 -0.109375 C 2.859375 0.015625 2.566406 0.078125 2.234375 0.078125 C 1.960938 0.078125 1.722656 0.03125 1.515625 -0.0625 C 1.304688 -0.15625 1.128906 -0.285156 0.984375 -0.453125 C 0.835938 -0.617188 0.726562 -0.816406 0.65625 -1.046875 C 0.582031 -1.285156 0.546875 -1.546875 0.546875 -1.828125 L 0.546875 -5.015625 L 1.75 -5.015625 L 1.75 -1.828125 C 1.75 -1.523438 1.816406 -1.285156 1.953125 -1.109375 C 2.097656 -0.941406 2.316406 -0.859375 2.609375 -0.859375 C 2.816406 -0.859375 3.007812 -0.90625 3.1875 -1 C 3.375 -1.09375 3.546875 -1.222656 3.703125 -1.390625 L 3.703125 -5.015625 Z M 4.90625 -5.015625 "/></g></g></g><g fill="#000000" fill-opacity="1"><g transform="translate(41.856741, 18.323862)"><g><path d="M 1.734375 -4.140625 C 1.890625 -4.441406 2.070312 -4.675781 2.28125 -4.84375 C 2.5 -5.019531 2.753906 -5.109375 3.046875 -5.109375 C 3.285156 -5.109375 3.472656 -5.054688 3.609375 -4.953125 L 3.53125 -4.046875 C 3.507812 -3.984375 3.484375 -3.941406 3.453125 -3.921875 C 3.421875 -3.898438 3.378906 -3.890625 3.328125 -3.890625 C 3.285156 -3.890625 3.210938 -3.894531 3.109375 -3.90625 C 3.015625 -3.925781 2.925781 -3.9375 2.84375 -3.9375 C 2.707031 -3.9375 2.585938 -3.914062 2.484375 -3.875 C 2.378906 -3.832031 2.285156 -3.773438 2.203125 -3.703125 C 2.117188 -3.628906 2.046875 -3.539062 1.984375 -3.4375 C 1.921875 -3.332031 1.859375 -3.21875 1.796875 -3.09375 L 1.796875 0 L 0.59375 0 L 0.59375 -5.015625 L 1.296875 -5.015625 C 1.421875 -5.015625 1.507812 -4.988281 1.5625 -4.9375 C 1.613281 -4.894531 1.644531 -4.816406 1.65625 -4.703125 Z M 1.734375 -4.140625 "/></g></g></g><g fill="#000000" fill-opacity="1"><g transform="translate(45.500532, 18.323862)"><g><path d="M 4.90625 -5.015625 L 4.90625 0 L 4.171875 0 C 4.015625 0 3.914062 -0.0703125 3.875 -0.21875 L 3.796875 -0.625 C 3.585938 -0.414062 3.359375 -0.242188 3.109375 -0.109375 C 2.859375 0.015625 2.566406 0.078125 2.234375 0.078125 C 1.960938 0.078125 1.722656 0.03125 1.515625 -0.0625 C 1.304688 -0.15625 1.128906 -0.285156 0.984375 -0.453125 C 0.835938 -0.617188 0.726562 -0.816406 0.65625 -1.046875 C 0.582031 -1.285156 0.546875 -1.546875 0.546875 -1.828125 L 0.546875 -5.015625 L 1.75 -5.015625 L 1.75 -1.828125 C 1.75 -1.523438 1.816406 -1.285156 1.953125 -1.109375 C 2.097656 -0.941406 2.316406 -0.859375 2.609375 -0.859375 C 2.816406 -0.859375 3.007812 -0.90625 3.1875 -1 C 3.375 -1.09375 3.546875 -1.222656 3.703125 -1.390625 L 3.703125 -5.015625 Z M 4.90625 -5.015625 "/></g></g></g><g fill="#000000" fill-opacity="1"><g transform="translate(51.010172, 18.323862)"><g><path d="M 1.796875 -1.296875 C 1.929688 -1.128906 2.078125 -1.007812 2.234375 -0.9375 C 2.398438 -0.875 2.582031 -0.84375 2.78125 -0.84375 C 2.957031 -0.84375 3.117188 -0.875 3.265625 -0.9375 C 3.410156 -1.007812 3.535156 -1.113281 3.640625 -1.25 C 3.742188 -1.394531 3.820312 -1.570312 3.875 -1.78125 C 3.925781 -2 3.953125 -2.253906 3.953125 -2.546875 C 3.953125 -2.835938 3.925781 -3.082031 3.875 -3.28125 C 3.832031 -3.488281 3.769531 -3.65625 3.6875 -3.78125 C 3.601562 -3.90625 3.492188 -4 3.359375 -4.0625 C 3.234375 -4.125 3.09375 -4.15625 2.9375 -4.15625 C 2.6875 -4.15625 2.472656 -4.097656 2.296875 -3.984375 C 2.117188 -3.878906 1.953125 -3.734375 1.796875 -3.546875 Z M 1.734375 -4.328125 C 1.941406 -4.554688 2.175781 -4.742188 2.4375 -4.890625 C 2.695312 -5.035156 3.003906 -5.109375 3.359375 -5.109375 C 3.628906 -5.109375 3.875 -5.050781 4.09375 -4.9375 C 4.320312 -4.820312 4.519531 -4.65625 4.6875 -4.4375 C 4.851562 -4.21875 4.976562 -3.945312 5.0625 -3.625 C 5.15625 -3.3125 5.203125 -2.953125 5.203125 -2.546875 C 5.203125 -2.171875 5.148438 -1.820312 5.046875 -1.5 C 4.953125 -1.1875 4.8125 -0.910156 4.625 -0.671875 C 4.4375 -0.441406 4.207031 -0.257812 3.9375 -0.125 C 3.675781 0.0078125 3.378906 0.078125 3.046875 0.078125 C 2.765625 0.078125 2.523438 0.0351562 2.328125 -0.046875 C 2.128906 -0.140625 1.953125 -0.265625 1.796875 -0.421875 L 1.796875 1.640625 L 0.59375 1.640625 L 0.59375 -5.015625 L 1.328125 -5.015625 C 1.484375 -5.015625 1.585938 -4.941406 1.640625 -4.796875 Z M 1.734375 -4.328125 "/></g></g></g><g fill="#000000" fill-opacity="1"><g transform="translate(56.558889, 18.323862)"><g><path d="M 3.25 -2.140625 C 2.894531 -2.117188 2.597656 -2.085938 2.359375 -2.046875 C 2.117188 -2.003906 1.925781 -1.945312 1.78125 -1.875 C 1.644531 -1.8125 1.546875 -1.734375 1.484375 -1.640625 C 1.421875 -1.546875 1.390625 -1.445312 1.390625 -1.34375 C 1.390625 -1.132812 1.453125 -0.984375 1.578125 -0.890625 C 1.703125 -0.796875 1.867188 -0.75 2.078125 -0.75 C 2.316406 -0.75 2.523438 -0.789062 2.703125 -0.875 C 2.890625 -0.96875 3.070312 -1.109375 3.25 -1.296875 Z M 0.484375 -4.3125 C 1.054688 -4.84375 1.75 -5.109375 2.5625 -5.109375 C 2.851562 -5.109375 3.113281 -5.054688 3.34375 -4.953125 C 3.570312 -4.859375 3.765625 -4.722656 3.921875 -4.546875 C 4.085938 -4.378906 4.210938 -4.175781 4.296875 -3.9375 C 4.378906 -3.707031 4.421875 -3.453125 4.421875 -3.171875 L 4.421875 0 L 3.875 0 C 3.757812 0 3.671875 -0.015625 3.609375 -0.046875 C 3.546875 -0.0859375 3.5 -0.160156 3.46875 -0.265625 L 3.359375 -0.625 C 3.234375 -0.507812 3.109375 -0.40625 2.984375 -0.3125 C 2.859375 -0.226562 2.726562 -0.15625 2.59375 -0.09375 C 2.46875 -0.0390625 2.332031 0 2.1875 0.03125 C 2.039062 0.0625 1.878906 0.078125 1.703125 0.078125 C 1.484375 0.078125 1.285156 0.0507812 1.109375 0 C 0.929688 -0.0625 0.773438 -0.148438 0.640625 -0.265625 C 0.515625 -0.378906 0.414062 -0.519531 0.34375 -0.6875 C 0.269531 -0.851562 0.234375 -1.050781 0.234375 -1.28125 C 0.234375 -1.40625 0.253906 -1.53125 0.296875 -1.65625 C 0.335938 -1.78125 0.40625 -1.898438 0.5 -2.015625 C 0.601562 -2.128906 0.726562 -2.234375 0.875 -2.328125 C 1.03125 -2.429688 1.21875 -2.519531 1.4375 -2.59375 C 1.664062 -2.675781 1.925781 -2.738281 2.21875 -2.78125 C 2.519531 -2.832031 2.863281 -2.863281 3.25 -2.875 L 3.25 -3.171875 C 3.25 -3.503906 3.175781 -3.75 3.03125 -3.90625 C 2.882812 -4.070312 2.675781 -4.15625 2.40625 -4.15625 C 2.207031 -4.15625 2.046875 -4.128906 1.921875 -4.078125 C 1.796875 -4.035156 1.679688 -3.984375 1.578125 -3.921875 C 1.484375 -3.867188 1.394531 -3.816406 1.3125 -3.765625 C 1.238281 -3.722656 1.148438 -3.703125 1.046875 -3.703125 C 0.960938 -3.703125 0.890625 -3.722656 0.828125 -3.765625 C 0.773438 -3.816406 0.726562 -3.867188 0.6875 -3.921875 Z M 0.484375 -4.3125 "/></g></g></g><g fill="#000000" fill-opacity="1"><g transform="translate(61.516588, 18.323862)"><g/></g></g><g fill="#ffd21e" fill-opacity="1"><g transform="translate(63.891655, 18.323862)"><g><path d="M 3.421875 -1.03125 C 3.671875 -1.03125 3.878906 -1.054688 4.046875 -1.109375 C 4.210938 -1.171875 4.34375 -1.25 4.4375 -1.34375 C 4.539062 -1.445312 4.613281 -1.5625 4.65625 -1.6875 C 4.695312 -1.820312 4.71875 -1.960938 4.71875 -2.109375 C 4.71875 -2.253906 4.691406 -2.390625 4.640625 -2.515625 C 4.597656 -2.640625 4.523438 -2.742188 4.421875 -2.828125 C 4.316406 -2.910156 4.179688 -2.972656 4.015625 -3.015625 C 3.847656 -3.066406 3.648438 -3.09375 3.421875 -3.09375 L 2.09375 -3.09375 L 2.09375 -1.03125 Z M 2.09375 -6.046875 L 2.09375 -4 L 3.140625 -4 C 3.585938 -4 3.925781 -4.082031 4.15625 -4.25 C 4.382812 -4.414062 4.5 -4.675781 4.5 -5.03125 C 4.5 -5.394531 4.394531 -5.65625 4.1875 -5.8125 C 3.976562 -5.96875 3.65625 -6.046875 3.21875 -6.046875 Z M 3.21875 -7.0625 C 3.675781 -7.0625 4.066406 -7.015625 4.390625 -6.921875 C 4.722656 -6.835938 4.992188 -6.710938 5.203125 -6.546875 C 5.421875 -6.390625 5.578125 -6.191406 5.671875 -5.953125 C 5.773438 -5.722656 5.828125 -5.46875 5.828125 -5.1875 C 5.828125 -5.019531 5.800781 -4.859375 5.75 -4.703125 C 5.695312 -4.554688 5.617188 -4.414062 5.515625 -4.28125 C 5.410156 -4.144531 5.28125 -4.023438 5.125 -3.921875 C 4.96875 -3.816406 4.78125 -3.722656 4.5625 -3.640625 C 5.53125 -3.429688 6.015625 -2.910156 6.015625 -2.078125 C 6.015625 -1.773438 5.957031 -1.492188 5.84375 -1.234375 C 5.726562 -0.984375 5.5625 -0.765625 5.34375 -0.578125 C 5.132812 -0.398438 4.867188 -0.257812 4.546875 -0.15625 C 4.222656 -0.0507812 3.859375 0 3.453125 0 L 0.78125 0 L 0.78125 -7.0625 Z M 3.21875 -7.0625 "/></g></g></g><g fill="#ffd21e" fill-opacity="1"><g transform="translate(70.324456, 18.323862)"><g><path d="M 3.25 -2.140625 C 2.894531 -2.117188 2.597656 -2.085938 2.359375 -2.046875 C 2.117188 -2.003906 1.925781 -1.945312 1.78125 -1.875 C 1.644531 -1.8125 1.546875 -1.734375 1.484375 -1.640625 C 1.421875 -1.546875 1.390625 -1.445312 1.390625 -1.34375 C 1.390625 -1.132812 1.453125 -0.984375 1.578125 -0.890625 C 1.703125 -0.796875 1.867188 -0.75 2.078125 -0.75 C 2.316406 -0.75 2.523438 -0.789062 2.703125 -0.875 C 2.890625 -0.96875 3.070312 -1.109375 3.25 -1.296875 Z M 0.484375 -4.3125 C 1.054688 -4.84375 1.75 -5.109375 2.5625 -5.109375 C 2.851562 -5.109375 3.113281 -5.054688 3.34375 -4.953125 C 3.570312 -4.859375 3.765625 -4.722656 3.921875 -4.546875 C 4.085938 -4.378906 4.210938 -4.175781 4.296875 -3.9375 C 4.378906 -3.707031 4.421875 -3.453125 4.421875 -3.171875 L 4.421875 0 L 3.875 0 C 3.757812 0 3.671875 -0.015625 3.609375 -0.046875 C 3.546875 -0.0859375 3.5 -0.160156 3.46875 -0.265625 L 3.359375 -0.625 C 3.234375 -0.507812 3.109375 -0.40625 2.984375 -0.3125 C 2.859375 -0.226562 2.726562 -0.15625 2.59375 -0.09375 C 2.46875 -0.0390625 2.332031 0 2.1875 0.03125 C 2.039062 0.0625 1.878906 0.078125 1.703125 0.078125 C 1.484375 0.078125 1.285156 0.0507812 1.109375 0 C 0.929688 -0.0625 0.773438 -0.148438 0.640625 -0.265625 C 0.515625 -0.378906 0.414062 -0.519531 0.34375 -0.6875 C 0.269531 -0.851562 0.234375 -1.050781 0.234375 -1.28125 C 0.234375 -1.40625 0.253906 -1.53125 0.296875 -1.65625 C 0.335938 -1.78125 0.40625 -1.898438 0.5 -2.015625 C 0.601562 -2.128906 0.726562 -2.234375 0.875 -2.328125 C 1.03125 -2.429688 1.21875 -2.519531 1.4375 -2.59375 C 1.664062 -2.675781 1.925781 -2.738281 2.21875 -2.78125 C 2.519531 -2.832031 2.863281 -2.863281 3.25 -2.875 L 3.25 -3.171875 C 3.25 -3.503906 3.175781 -3.75 3.03125 -3.90625 C 2.882812 -4.070312 2.675781 -4.15625 2.40625 -4.15625 C 2.207031 -4.15625 2.046875 -4.128906 1.921875 -4.078125 C 1.796875 -4.035156 1.679688 -3.984375 1.578125 -3.921875 C 1.484375 -3.867188 1.394531 -3.816406 1.3125 -3.765625 C 1.238281 -3.722656 1.148438 -3.703125 1.046875 -3.703125 C 0.960938 -3.703125 0.890625 -3.722656 0.828125 -3.765625 C 0.773438 -3.816406 0.726562 -3.867188 0.6875 -3.921875 Z M 0.484375 -4.3125 "/></g></g></g><g fill="#ffd21e" fill-opacity="1"><g transform="translate(75.282154, 18.323862)"><g><path d="M 4.1875 -4.515625 C 4.1875 -4.429688 4.171875 -4.347656 4.140625 -4.265625 C 4.117188 -4.179688 4.082031 -4.113281 4.03125 -4.0625 L 1.65625 -0.921875 L 4.125 -0.921875 L 4.125 0 L 0.25 0 L 0.25 -0.5 C 0.25 -0.5625 0.257812 -0.628906 0.28125 -0.703125 C 0.3125 -0.773438 0.351562 -0.847656 0.40625 -0.921875 L 2.8125 -4.09375 L 0.390625 -4.09375 L 0.390625 -5.015625 L 4.1875 -5.015625 Z M 4.1875 -4.515625 "/></g></g></g><g fill="#ffd21e" fill-opacity="1"><g transform="translate(79.770952, 18.323862)"><g><path d="M 3.25 -2.140625 C 2.894531 -2.117188 2.597656 -2.085938 2.359375 -2.046875 C 2.117188 -2.003906 1.925781 -1.945312 1.78125 -1.875 C 1.644531 -1.8125 1.546875 -1.734375 1.484375 -1.640625 C 1.421875 -1.546875 1.390625 -1.445312 1.390625 -1.34375 C 1.390625 -1.132812 1.453125 -0.984375 1.578125 -0.890625 C 1.703125 -0.796875 1.867188 -0.75 2.078125 -0.75 C 2.316406 -0.75 2.523438 -0.789062 2.703125 -0.875 C 2.890625 -0.96875 3.070312 -1.109375 3.25 -1.296875 Z M 0.484375 -4.3125 C 1.054688 -4.84375 1.75 -5.109375 2.5625 -5.109375 C 2.851562 -5.109375 3.113281 -5.054688 3.34375 -4.953125 C 3.570312 -4.859375 3.765625 -4.722656 3.921875 -4.546875 C 4.085938 -4.378906 4.210938 -4.175781 4.296875 -3.9375 C 4.378906 -3.707031 4.421875 -3.453125 4.421875 -3.171875 L 4.421875 0 L 3.875 0 C 3.757812 0 3.671875 -0.015625 3.609375 -0.046875 C 3.546875 -0.0859375 3.5 -0.160156 3.46875 -0.265625 L 3.359375 -0.625 C 3.234375 -0.507812 3.109375 -0.40625 2.984375 -0.3125 C 2.859375 -0.226562 2.726562 -0.15625 2.59375 -0.09375 C 2.46875 -0.0390625 2.332031 0 2.1875 0.03125 C 2.039062 0.0625 1.878906 0.078125 1.703125 0.078125 C 1.484375 0.078125 1.285156 0.0507812 1.109375 0 C 0.929688 -0.0625 0.773438 -0.148438 0.640625 -0.265625 C 0.515625 -0.378906 0.414062 -0.519531 0.34375 -0.6875 C 0.269531 -0.851562 0.234375 -1.050781 0.234375 -1.28125 C 0.234375 -1.40625 0.253906 -1.53125 0.296875 -1.65625 C 0.335938 -1.78125 0.40625 -1.898438 0.5 -2.015625 C 0.601562 -2.128906 0.726562 -2.234375 0.875 -2.328125 C 1.03125 -2.429688 1.21875 -2.519531 1.4375 -2.59375 C 1.664062 -2.675781 1.925781 -2.738281 2.21875 -2.78125 C 2.519531 -2.832031 2.863281 -2.863281 3.25 -2.875 L 3.25 -3.171875 C 3.25 -3.503906 3.175781 -3.75 3.03125 -3.90625 C 2.882812 -4.070312 2.675781 -4.15625 2.40625 -4.15625 C 2.207031 -4.15625 2.046875 -4.128906 1.921875 -4.078125 C 1.796875 -4.035156 1.679688 -3.984375 1.578125 -3.921875 C 1.484375 -3.867188 1.394531 -3.816406 1.3125 -3.765625 C 1.238281 -3.722656 1.148438 -3.703125 1.046875 -3.703125 C 0.960938 -3.703125 0.890625 -3.722656 0.828125 -3.765625 C 0.773438 -3.816406 0.726562 -3.867188 0.6875 -3.921875 Z M 0.484375 -4.3125 "/></g></g></g><g fill="#ffd21e" fill-opacity="1"><g transform="translate(84.728651, 18.323862)"><g><path d="M 1.734375 -4.140625 C 1.890625 -4.441406 2.070312 -4.675781 2.28125 -4.84375 C 2.5 -5.019531 2.753906 -5.109375 3.046875 -5.109375 C 3.285156 -5.109375 3.472656 -5.054688 3.609375 -4.953125 L 3.53125 -4.046875 C 3.507812 -3.984375 3.484375 -3.941406 3.453125 -3.921875 C 3.421875 -3.898438 3.378906 -3.890625 3.328125 -3.890625 C 3.285156 -3.890625 3.210938 -3.894531 3.109375 -3.90625 C 3.015625 -3.925781 2.925781 -3.9375 2.84375 -3.9375 C 2.707031 -3.9375 2.585938 -3.914062 2.484375 -3.875 C 2.378906 -3.832031 2.285156 -3.773438 2.203125 -3.703125 C 2.117188 -3.628906 2.046875 -3.539062 1.984375 -3.4375 C 1.921875 -3.332031 1.859375 -3.21875 1.796875 -3.09375 L 1.796875 0 L 0.59375 0 L 0.59375 -5.015625 L 1.296875 -5.015625 C 1.421875 -5.015625 1.507812 -4.988281 1.5625 -4.9375 C 1.613281 -4.894531 1.644531 -4.816406 1.65625 -4.703125 Z M 1.734375 -4.140625 "/></g></g></g></svg>